<?xml version="1.0"?><svg width="3700" height="4000" xmlns="http://www.w3.org/2000/svg">

 <metadata id="metadata7">image/svg+xml</metadata>
 <g>
  <title>Layer 1</title>
  <g opacity="0.8" id="layer1">
   <path fill="#bfbfbf" id="maple_leaf" d="m1831.924805,32.002075l-305.654785,596.037354c-34.678711,64.776489 -96.818359,58.765747 -158.958496,22.583008l-221.296387,-119.797729l164.94043,915.495117c34.679688,167.255859 -76.591309,167.255859 -131.523438,94.937134l-386.177246,-452.012085l-62.700195,229.543701c-7.226563,30.143555 -39.01416,61.803955 -86.711426,54.264648l-488.336914,-107.347656l128.263672,487.549927c27.464355,108.484741 48.874023,153.401489 -27.71875,182.014282l-174.054688,85.53125l840.636719,713.912598c33.270508,26.99585 50.091309,75.571533 38.236816,119.553955l-73.574707,252.435059c289.446777,-34.879883 548.945313,-66.105225 838.385254,-100.945801c25.72168,-0.332031 68.366699,22.522705 68.185547,53.495117l-38.34375,924.830078l140.726074,0l-22.155762,-922.841309c-0.175293,-30.984619 38.498535,-55.815918 64.220215,-55.483887c289.439697,34.840576 548.938477,66.065918 838.385498,100.945801l-73.574707,-252.435059c-11.854248,-43.982422 4.966309,-92.558105 38.236572,-119.553955l840.636475,-713.912598l-174.054443,-85.53125c-76.592529,-28.612793 -55.182861,-73.529541 -27.71875,-182.014282l128.263672,-487.549927l-488.336914,107.347656c-47.697021,7.539307 -79.484619,-24.121094 -86.71167,-54.264648l-62.699951,-229.543701l-386.17749,452.012085c-54.932129,72.318726 -166.203125,72.318726 -131.523193,-94.937134l164.940186,-915.495117l-221.296143,119.797729c-62.143311,36.182739 -124.279785,42.193481 -158.958496,-22.583008"/>
  </g>
 </g>
</svg>